<?xml version="1.0" encoding="utf-8"?>
<!-- Generator: Adobe Illustrator 25.4.1, SVG Export Plug-In . SVG Version: 6.00 Build 0)  -->
<svg version="1.1" id="Layer_1" xmlns="http://www.w3.org/2000/svg" xmlns:xlink="http://www.w3.org/1999/xlink" x="0px" y="0px"
	 viewBox="0 0 298.83 28.68" enable-background="new 0 0 298.83 28.68" xml:space="preserve">
	<path fill="#020202" stroke="#000000" stroke-miterlimit="10" d="M43.68,1.8l0.85,12.14L34.9,6.25h-5.87v14.79l9.22,5.87H6.85
	l9.22-5.87V6.25H10.2l-9.62,7.69L1.42,1.8H43.68z M74.91,1.8h29.32l-9.22,5.85v13.37l9.22,5.89H74.91l7.12-5.89v-4.1H67.48v4.1
	l7.12,5.89H45.3l9.22-5.89V7.65L45.3,1.8h29.3l-7.12,5.85v3h14.55v-3L74.91,1.8z M154.05,1.8v10.85l-9.42-6.71h-17.71v5.48h9.73
	l6.92-2.94v11.33l-6.92-3.42h-9.73v5.56h17.71l10.15-7.21v12.18h-50.05l9.22-5.81V7.63l-9.22-5.83H154.05z M183.4,1.8l5.04,11.4
	l4.76-11.4h28.14l-9.22,5.85v13.39l9.22,5.87h-30.48l8.7-5.87V4.76l-9.38,22.15h-6.79l-9.42-21.34v15.47l8.65,5.87h-24.96l9.22-5.87
	V7.65l-9.22-5.85H183.4z M222.71,1.8h30.96l-9.2,5.85v13.39l9.2,5.87h-30.96l9.22-5.87V7.65L222.71,1.8z M258.42,27.9V15.32
	c2.24,2.58,5.33,4.59,9.26,6.03c3.93,1.45,8.27,2.17,13.01,2.17c4.99,0,7.49-0.67,7.49-2c0-0.63-0.33-1.05-1-1.26
	c-0.67-0.21-2.27-0.42-4.81-0.62l-5.48-0.42c-6.38-0.48-10.88-1.24-13.52-2.3c-4.19-1.68-6.29-4.06-6.29-7.14
	c0-2.89,1.41-5.16,4.22-6.81c2.81-1.64,6.69-2.46,11.63-2.46c4.76,0,9.03,0.66,12.8,1.97l1.05,0.37l7.04-2.17v10.61
	c-6.59-4.29-13.6-6.44-21.04-6.44c-4.49,0-6.73,0.67-6.73,2c0,0.63,0.55,1.1,1.64,1.42c1.09,0.32,3.15,0.6,6.16,0.85l5.33,0.42
	c6.7,0.54,11.18,1.35,13.45,2.43c3.8,1.81,5.7,4.24,5.7,7.28c0,2.72-1.51,4.89-4.52,6.5c-3.01,1.61-7.05,2.42-12.13,2.42
	c-5.45,0-11.02-0.9-16.74-2.7L258.42,27.9z"/>
</svg>
